# xmcd CD database file
#
# Track frame offsets:
#	150
#	10716
#	26315
#	44287
#	58542
#	69361
#	76871
#	89594
#	97880
#	106789
#
# Disc length: 1634 seconds
#
# Revision: 0
# Processed by: cddbd v1.5.2PL0 Copyright (c) Steve Scherf et al.
# Submitted via: CDex 1.51
#
DISCID=6606600a
DTITLE=Willie Nelson - Original Outlaw - Country Superstar (Disk 1)
DYEAR=2006
DGENRE=Country
TTITLE0=Blue Eyes Crying In The Rain
TTITLE1=Mamas Don't Let Your Babies Grow Up to Be Cowboys
TTITLE2=Crazy
TTITLE3=That's The Way Love Goes
TTITLE4=Touch Me (Live)
TTITLE5=I Gotta Get Drunk
TTITLE6=I Just Don't Understand
TTITLE7=You Wouldn't Cross The Street To Say Goodbye
TTITLE8=Why Are You Picking On Me
TTITLE9=I Can't Help It If I'm Still In Love With You
EXTD=YEAR: 2006
EXTT0=
EXTT1=
EXTT2=
EXTT3=
EXTT4=
EXTT5=
EXTT6=
EXTT7=
EXTT8=
EXTT9=
PLAYORDER=
